<?xml version="1.0" encoding="UTF-8"?>
<svg version="1.1" xmlns="http://www.w3.org/2000/svg" width="1024" height="1024">
<path d="M0 0 C337.92 0 675.84 0 1024 0 C1024 337.92 1024 675.84 1024 1024 C686.08 1024 348.16 1024 0 1024 C0 686.08 0 348.16 0 0 Z " fill="#FEFEFF" transform="translate(0,0)"/>
<path d="M0 0 C1.07057648 0.00082581 2.14115295 0.00165161 3.24417114 0.00250244 C22.00178779 0.03549004 40.54784952 1.01716853 59.20117188 2.9453125 C62.26298826 3.25662752 65.3232711 3.53235877 68.390625 3.78125 C80.66849511 4.82532072 92.66497044 7.24419963 104.72949219 9.6953125 C107.49548495 10.24903674 110.26434408 10.77343027 113.0390625 11.28125 C167.05438792 21.2800845 219.10314805 43.90850076 265.8125 72.3125 C267.082146 73.08376221 267.082146 73.08376221 268.37744141 73.87060547 C285.94486613 84.60955438 302.82232171 96.33933649 318.8125 109.3125 C319.78574219 110.09238281 320.75898437 110.87226562 321.76171875 111.67578125 C327.05530559 115.95051874 332.19130586 120.3606851 337.21459961 124.94995117 C338.82482219 126.41429888 340.44237261 127.87068477 342.07128906 129.31420898 C348.25788372 134.80074161 354.17686984 140.52154627 360.0090332 146.37866211 C361.50554925 147.88056925 363.007383 149.37701062 364.50976562 150.87304688 C369.82149752 156.18084132 374.94468035 161.59101034 379.8125 167.3125 C380.73766889 168.36106726 381.66467382 169.4080182 382.59375 170.453125 C391.24915239 180.3041733 399.08577061 190.7242526 406.8125 201.3125 C407.35438965 202.05435547 407.8962793 202.79621094 408.45458984 203.56054688 C414.38651468 211.7227564 420.02269385 220.04815598 425.4375 228.5625 C425.94692139 229.36115479 426.45634277 230.15980957 426.98120117 230.98266602 C427.45404541 231.73604248 427.92688965 232.48941895 428.4140625 233.265625 C429.03788818 234.25804199 429.03788818 234.25804199 429.67431641 235.27050781 C430.9450034 237.55022167 431.88983289 239.87360623 432.8125 242.3125 C416.73115738 251.74164925 400.58201649 261.04576341 384.38574219 270.27587891 C378.48448324 273.63902044 372.58551988 277.00618174 366.6875 280.375 C365.81795685 280.87164658 365.81795685 280.87164658 364.93084717 281.37832642 C356.50544899 286.19160382 348.0917893 291.02495597 339.6875 295.875 C338.63852539 296.47981201 337.58955078 297.08462402 336.50878906 297.70776367 C331.46020244 300.6207377 326.41602073 303.54088521 321.38241577 306.47966003 C318.98104378 307.88096941 316.57757136 309.27865285 314.17388916 310.67599487 C312.47565705 311.66527224 310.78051465 312.65984749 309.08544922 313.65454102 C308.0595166 314.25065186 307.03358398 314.8467627 305.9765625 315.4609375 C305.07373535 315.98864746 304.1709082 316.51635742 303.24072266 317.06005859 C301.06097546 318.18434003 299.20847986 318.85283458 296.8125 319.3125 C296.02939453 318.075 296.02939453 318.075 295.23046875 316.8125 C282.99415451 297.56867954 269.72498492 279.56419824 254.8125 262.3125 C254.13316406 261.51972656 253.45382812 260.72695313 252.75390625 259.91015625 C247.64920978 254.08901115 242.21149885 248.60976992 236.75 243.125 C235.99388428 242.36421143 235.23776855 241.60342285 234.45874023 240.81958008 C204.74470404 211.18960056 168.59551862 189.74886863 129.8125 174.3125 C129.0395459 174.00151367 128.2665918 173.69052734 127.47021484 173.37011719 C69.3465501 150.09917868 -4.3885352 145.30489536 -65.1875 159.3125 C-67.49984837 159.73000734 -69.81235661 160.14662992 -72.125 160.5625 C-118.74625754 170.01275491 -163.71289795 191.87373067 -200.1875 222.3125 C-201.01507813 222.96863281 -201.84265625 223.62476563 -202.6953125 224.30078125 C-219.01309579 237.31219154 -235.17159784 252.24772761 -248.09765625 268.6640625 C-250.30819225 271.46545205 -252.61677853 274.16439732 -254.9375 276.875 C-286.21635623 314.49678219 -306.82559499 359.27232334 -319.1875 406.3125 C-319.50098389 407.49682617 -319.50098389 407.49682617 -319.82080078 408.70507812 C-325.42348075 430.33152085 -328.28410543 453.73590857 -328.390625 476.05078125 C-328.39759399 477.04192932 -328.40456299 478.03307739 -328.41174316 479.05426025 C-328.42906172 482.2445505 -328.43546579 485.43466467 -328.4375 488.625 C-328.43850708 489.71730927 -328.43951416 490.80961853 -328.44055176 491.93502808 C-328.42956073 509.58419844 -327.71932122 526.82305018 -325.1875 544.3125 C-325.0323291 545.40256348 -324.8771582 546.49262695 -324.71728516 547.61572266 C-322.90128056 560.0463759 -320.51039065 572.19882776 -317.1875 584.3125 C-316.83695329 585.67797863 -316.48804354 587.04387837 -316.140625 588.41015625 C-303.73171561 636.27699193 -279.48275558 682.35793281 -245.671875 718.6171875 C-243.74450535 720.70820174 -241.88319163 722.82431064 -240.03125 724.98046875 C-235.54999297 730.11810806 -230.75472191 734.92930246 -225.9375 739.75 C-225.05964844 740.64009766 -224.18179687 741.53019531 -223.27734375 742.44726562 C-217.99438352 747.74182826 -212.54525517 752.64117506 -206.69799805 757.30615234 C-204.1729557 759.32412356 -201.70971027 761.40317659 -199.25 763.5 C-166.84097883 789.89544925 -128.50386778 809.41697598 -88.1875 820.3125 C-86.7948291 820.69535156 -86.7948291 820.69535156 -85.37402344 821.0859375 C-24.2934829 837.63071684 49.31367593 837.66036955 109.49560547 817.09619141 C112.20920728 816.17831345 114.93471246 815.30004995 117.66015625 814.41796875 C153.78632612 802.53635064 186.44546009 784.41430041 215.8125 760.3125 C216.36631348 759.86310059 216.92012695 759.41370117 217.49072266 758.95068359 C226.55174959 751.54905075 234.89958535 743.43179739 243.1875 735.1875 C243.69778748 734.68247955 244.20807495 734.17745911 244.73382568 733.65713501 C251.55371575 726.89175902 257.85948325 719.86395608 263.8125 712.3125 C264.76619053 711.13221697 265.72050184 709.95243492 266.67578125 708.7734375 C277.68514782 694.9019868 287.61017975 680.43932289 296.8125 665.3125 C300.45314285 665.99235962 303.22004407 667.53880545 306.4140625 669.3828125 C307.53039062 670.02412109 308.64671875 670.66542969 309.796875 671.32617188 C311.01046586 672.02986309 312.22400617 672.73364148 313.4375 673.4375 C314.70026927 674.16515029 315.96329401 674.89235738 317.2265625 675.61914062 C320.46966406 677.48645553 323.70950184 679.35935284 326.94836426 681.23400879 C329.78437522 682.87477605 332.62268845 684.5115456 335.4609375 686.1484375 C338.64718004 687.98622278 341.83316616 689.8244401 345.01806641 691.66455078 C352.9359699 696.23777107 360.87088312 700.78065564 368.8125 705.3125 C390.2145354 717.52797311 411.54037163 729.87233657 432.8125 742.3125 C431.11771551 746.73879489 428.90570476 750.63138399 426.375 754.625 C425.9325293 755.3264917 425.49005859 756.0279834 425.03417969 756.75073242 C413.41301764 775.03793349 400.85812134 792.9134708 386.53515625 809.1875 C384.07073278 811.9883314 381.74905065 814.88368445 379.4375 817.8125 C375.23589084 823.0031741 370.59093969 827.64817531 365.83349609 832.32104492 C362.77666207 835.32755556 359.82435562 838.33956986 357.0625 841.625 C353.89358243 845.35221322 350.35323725 848.52941989 346.68359375 851.7578125 C343.95392976 854.18665638 341.28620489 856.66791082 338.62548828 859.17138672 C333.39844518 864.08308976 328.14021594 868.84127724 322.46875 873.2421875 C320.46311308 874.80540451 318.4919763 876.38998845 316.53125 878.0078125 C307.45267292 885.46353513 297.98861641 892.17843235 288.22216797 898.70117188 C285.85145414 900.28645164 283.48940535 901.88393579 281.12890625 903.484375 C231.02165472 937.35128942 174.77777727 960.41051347 115.8125 973.3125 C114.69391602 973.56225586 113.57533203 973.81201172 112.42285156 974.06933594 C93.74275558 978.18432195 74.87508011 980.29260766 55.85961914 982.11395264 C53.99882325 982.29442876 52.13899372 982.48479991 50.27929688 982.67626953 C16.50365992 986.09975177 -18.42504074 985.93523578 -52.10791016 981.69287109 C-56.66813952 981.12962095 -61.23968817 980.69669662 -65.8125 980.25 C-77.51080265 979.09943818 -89.01834006 977.05727035 -100.5 974.5625 C-102.30936035 974.17106812 -102.30936035 974.17106812 -104.15527344 973.77172852 C-121.35078318 970.00950612 -138.52005232 966.02151375 -155.1875 960.3125 C-156.54149902 959.85085449 -156.54149902 959.85085449 -157.92285156 959.37988281 C-173.34860973 954.0768063 -188.33954585 948.05883765 -203.1875 941.3125 C-204.41194824 940.76408447 -204.41194824 940.76408447 -205.66113281 940.20458984 C-219.31312466 934.07380829 -232.26150598 926.83865819 -245.1875 919.3125 C-245.9201709 918.88936523 -246.6528418 918.46623047 -247.40771484 918.03027344 C-257.34742526 912.27938925 -266.81903485 905.94849615 -276.1875 899.3125 C-276.9403125 898.78043945 -277.693125 898.24837891 -278.46875 897.70019531 C-287.63650886 891.20254622 -296.61686864 884.58992959 -305.1875 877.3125 C-306.25471955 876.41868689 -307.32245443 875.52548885 -308.390625 874.6328125 C-315.11720177 868.9959176 -321.70234025 863.22663939 -328.1875 857.3125 C-329.02796875 856.56484375 -329.8684375 855.8171875 -330.734375 855.046875 C-337.70328715 848.78666578 -344.36678997 842.23926948 -351 835.625 C-351.89565674 834.73393555 -352.79131348 833.84287109 -353.71411133 832.92480469 C-358.74564556 827.88153975 -363.57785723 822.74337131 -368.1875 817.3125 C-368.87646362 816.51404663 -368.87646362 816.51404663 -369.5793457 815.69946289 C-376.20602376 808.01912946 -382.59126462 800.16816484 -388.78271484 792.13378906 C-389.71720874 790.92222764 -390.65502693 789.71322284 -391.59619141 788.50683594 C-410.7301598 763.94446554 -426.1700206 737.04407242 -440.1875 709.3125 C-440.5597168 708.5788623 -440.93193359 707.84522461 -441.31542969 707.08935547 C-456.5376362 676.79789284 -467.84511159 643.35625949 -475.1875 610.3125 C-475.46086182 609.09868652 -475.46086182 609.09868652 -475.73974609 607.86035156 C-477.03216245 602.03541049 -478.1410195 596.18616687 -479.1875 590.3125 C-479.38730469 589.21099609 -479.58710938 588.10949219 -479.79296875 586.97460938 C-489.15412553 534.46702999 -491.58073606 478.18772311 -484.1875 425.3125 C-484.0076916 423.95147917 -483.82902388 422.59030727 -483.65136719 421.22900391 C-481.38178268 403.97242102 -478.35990619 387.04406951 -473.93603516 370.19189453 C-473.20310878 367.37254239 -472.50886363 364.54626487 -471.82421875 361.71484375 C-465.61598783 336.41475292 -456.92943848 312.03014079 -446.1875 288.3125 C-445.71586426 287.26755371 -445.24422852 286.22260742 -444.75830078 285.14599609 C-437.5295753 269.27609183 -429.23929064 254.20931887 -420.1875 239.3125 C-419.72601563 238.54583008 -419.26453125 237.77916016 -418.7890625 236.98925781 C-406.18541297 216.08820568 -391.54296744 196.37815359 -375.57763672 177.92919922 C-374.11263067 176.22542858 -372.66637059 174.50699584 -371.22265625 172.78515625 C-365.62303118 166.1322168 -359.8474794 159.83578113 -353.6328125 153.75390625 C-351.56606354 151.69045881 -349.63989416 149.59813637 -347.75 147.375 C-341.19889034 139.72154015 -333.89502025 132.59260962 -326.22265625 126.0703125 C-323.77921962 123.9598586 -321.42831179 121.75957121 -319.0625 119.5625 C-313.31478989 114.32727433 -307.27614657 109.55515585 -301.11816406 104.81494141 C-299.14160245 103.27678256 -297.19048366 101.710489 -295.2421875 100.13671875 C-277.10561475 85.59003047 -257.49886611 72.61971851 -237.1875 61.3125 C-236.34944824 60.84150879 -235.51139648 60.37051758 -234.64794922 59.88525391 C-182.35903584 30.56621397 -125.86437199 12.77685314 -66.5625 4.625 C-65.82364563 4.52217712 -65.08479126 4.41935425 -64.32354736 4.31341553 C-42.92104393 1.36317485 -21.60330272 -0.07142426 0 0 Z " fill="#8A5CFF" transform="translate(518.1875,14.6875)"/>
<path d="M0 0 C7.57963064 6.56993532 11.59001621 15.27386729 12.41969764 25.19131255 C12.52946133 29.13711842 12.54596418 33.07718399 12.52830505 37.02389526 C12.53248342 38.55015361 12.53796369 40.07640886 12.54462487 41.60265839 C12.55903227 45.77554235 12.55484954 49.948228 12.54745805 54.1211226 C12.54271699 58.62975795 12.55524453 63.13835098 12.56547546 67.64697266 C12.58265049 76.47158316 12.58350615 85.29612241 12.57826256 94.12074529 C12.57421717 101.29527801 12.5756688 108.46978972 12.58101082 115.64432144 C12.58175924 116.66638553 12.58250766 117.68844961 12.58327876 118.74148533 C12.58481028 120.81797122 12.58634863 122.89445711 12.58789373 124.97094299 C12.60161412 144.43336799 12.59618435 163.89575276 12.58470852 183.35817684 C12.57477691 201.15182166 12.5877164 218.94536247 12.61164271 236.73899125 C12.63604258 255.02297724 12.64563938 273.30691481 12.63898998 291.59091675 C12.63549971 301.85059835 12.63771721 312.11019997 12.65524101 322.36986923 C12.66997408 331.10376144 12.67058397 339.83751737 12.6531701 348.57140695 C12.64466681 353.02458439 12.64249412 357.47751848 12.65782166 361.93068314 C12.67169878 366.01310403 12.66686707 370.0950738 12.64758242 374.17746879 C12.64383134 375.64843562 12.64671852 377.11943884 12.65719407 378.59037314 C12.73674221 390.62285167 11.19899282 401.45047801 3.1875 410.8828125 C-4.08820712 417.89470581 -12.44083467 420.73822264 -22.359375 421.16796875 C-31.69526936 420.8924302 -40.03897049 416.64373723 -46.6171875 410.109375 C-54.72254276 400.31370696 -55.44872642 388.57487309 -55.3740387 376.37060547 C-55.37937372 374.83436863 -55.38644487 373.29813701 -55.39508575 371.76191521 C-55.41361323 367.57069551 -55.40744257 363.37983155 -55.39693272 359.18859768 C-55.38991251 354.65680863 -55.40595989 350.12509059 -55.41893005 345.59332275 C-55.44052753 336.72752641 -55.4404542 327.86185863 -55.43230451 318.99604464 C-55.42599495 311.78818302 -55.4271503 304.58035879 -55.43357658 297.37249756 C-55.43447824 296.34515373 -55.43537989 295.3178099 -55.43630887 294.25933444 C-55.43816014 292.17205762 -55.4400227 290.0847808 -55.44189643 287.997504 C-55.45845982 268.4425411 -55.44976784 248.88765045 -55.43291085 229.33269191 C-55.4182124 211.45508618 -55.43284697 193.57764851 -55.46168102 175.70006442 C-55.49109492 157.32560661 -55.50204165 138.9512263 -55.49249882 120.57674599 C-55.4914763 118.49731065 -55.49048169 116.4178753 -55.4895153 114.33843994 C-55.48903891 113.31541932 -55.48856252 112.2923987 -55.4880717 111.23837745 C-55.48591036 104.04233151 -55.49569662 96.8463592 -55.51028633 89.65032959 C-55.52782811 80.87620038 -55.52766563 72.10228543 -55.50493468 63.32816458 C-55.4938098 58.8546747 -55.49059014 54.38156205 -55.50923538 49.90808868 C-55.52610757 45.80715258 -55.51959888 41.70692078 -55.49501859 37.60602975 C-55.49015694 36.12839502 -55.4935916 34.65070274 -55.50650603 33.17311645 C-55.60366304 21.18503544 -53.46152766 10.54692954 -44.953125 1.609375 C-31.38032426 -9.76037786 -14.30769369 -10.13044745 0 0 Z " fill="#8A5DFF" transform="translate(465.859375,300.14453125)"/>
<path d="M0 0 C7.2265197 5.94300352 12.39356052 13.29974027 13.86058164 22.72311711 C14.0688165 26.77409832 14.09658039 30.78625479 14.0531311 34.84048462 C14.05862222 36.3987751 14.06673487 37.95705815 14.07721841 39.51532304 C14.0982657 43.76759342 14.08221856 48.0190152 14.05971742 52.27124786 C14.04195621 56.86844397 14.05894244 61.46553362 14.07144165 66.06272888 C14.09037621 75.05627091 14.0772551 84.04949101 14.05291577 93.04300906 C14.02561614 103.5223044 14.02895667 114.00152387 14.03318243 124.48084573 C14.03955599 143.18065581 14.01626144 161.8803133 13.97705078 180.58007812 C13.93903419 198.71521652 13.9248793 216.85017616 13.93603516 234.98535156 C13.94815643 254.74828896 13.94778703 274.51114784 13.92506349 294.27407873 C13.92264898 296.38212482 13.92023701 298.49017091 13.91782761 300.59821701 C13.91662053 301.63533961 13.91541345 302.6724622 13.9141698 303.74101276 C13.9064187 311.04167202 13.90719589 318.34230202 13.9109993 325.64296341 C13.91524768 334.54120894 13.90476101 343.43929811 13.87577219 352.33749963 C13.86130615 356.87548842 13.85311131 361.41324974 13.86225891 365.95125771 C13.87043557 370.10876559 13.86001446 374.26580463 13.83500676 378.42324154 C13.82917047 379.92371284 13.8299882 381.42422863 13.83829291 382.92468829 C13.90306036 395.79969047 11.709372 404.55576951 2.67578125 414.01953125 C-0.52468626 416.89837023 -3.65929402 418.71592711 -7.6953125 420.15234375 C-9.10490234 420.68214844 -9.10490234 420.68214844 -10.54296875 421.22265625 C-18.3555132 423.5267276 -26.88721531 423.03364701 -34.28125 419.6015625 C-43.16480344 414.2685555 -49.14945431 407.32447702 -52.2395885 397.40523309 C-52.82413114 394.51552377 -52.82348585 391.79393553 -52.82674026 388.84439564 C-52.83250198 386.88658986 -52.83250198 386.88658986 -52.8383801 384.88923246 C-52.83759985 383.43728875 -52.83672106 381.98534509 -52.83575439 380.53340149 C-52.83833792 378.99368741 -52.84135105 377.453974 -52.8447578 375.91426152 C-52.85283253 371.67648247 -52.85461763 367.43872036 -52.85535526 363.20093453 C-52.857205 358.6329599 -52.86475196 354.06499408 -52.87149048 349.49702454 C-52.88507788 339.50524143 -52.89109921 329.51346234 -52.89550114 319.52167153 C-52.89826297 313.28351713 -52.90250023 307.04536428 -52.90700531 300.80721092 C-52.9191987 283.5379728 -52.92949775 266.26873593 -52.9328804 248.9994936 C-52.93309997 247.89401153 -52.93331953 246.78852947 -52.93354575 245.64954795 C-52.93376403 244.54140893 -52.93398231 243.43326992 -52.9342072 242.29155093 C-52.93465067 240.04601117 -52.93509723 237.8004714 -52.93554688 235.55493164 C-52.9357683 234.44106452 -52.93598973 233.32719739 -52.93621787 232.17957672 C-52.9401658 214.13135058 -52.95761933 196.08316482 -52.9809064 178.03495429 C-53.00461805 159.50822928 -53.01708217 140.98152453 -53.01824832 122.4547841 C-53.01916521 112.05147649 -53.02492091 101.64822148 -53.04306793 91.24492836 C-53.05846642 82.38603338 -53.06359087 73.52720726 -53.05532983 64.66830144 C-53.05142239 60.14873708 -53.05235752 55.6293114 -53.06638718 51.1097641 C-53.07912039 46.96997559 -53.07793369 42.83043005 -53.06579646 38.6906419 C-53.06383846 37.19531955 -53.06692271 35.69998001 -53.07564083 34.20468179 C-53.14143429 22.15429874 -51.94437571 13.2435387 -43.6953125 4.15234375 C-31.33946161 -7.67884256 -14.59899963 -10.00772003 0 0 Z " fill="#8A5CFF" transform="translate(709.6953125,298.84765625)"/>
<path d="M0 0 C8.19152168 4.68263456 13.67345201 11.45532225 16.58984375 20.48046875 C16.88313111 23.52083841 16.86397603 26.54842347 16.85054016 29.60101318 C16.85627848 30.98222048 16.85627848 30.98222048 16.86213273 32.39133096 C16.87245476 35.4780677 16.86847202 38.56461816 16.86450195 41.65136719 C16.86884894 43.86407646 16.87403204 46.07678422 16.87998962 48.28948975 C16.89339423 54.30201983 16.89395652 60.31448711 16.89142632 66.32702923 C16.89035732 71.3468 16.89523833 76.36655803 16.90003175 81.38632607 C16.91176751 93.90865893 16.91089903 106.43096129 16.90447494 118.95329431 C16.89930944 129.81716316 16.91055151 140.68094224 16.92957316 151.54479334 C16.9489692 162.70839205 16.95691312 173.87195809 16.9534499 185.03557611 C16.95163741 191.29956459 16.9542697 197.56347091 16.96816444 203.82744598 C16.98074728 209.72077146 16.97879418 215.61391755 16.96575356 221.5072403 C16.96338901 223.66751669 16.96611808 225.82780572 16.97437668 227.98806763 C16.98485624 230.94291558 16.97673342 233.89716305 16.96406555 236.85198975 C16.97143984 237.70171789 16.97881412 238.55144603 16.98641187 239.42692351 C16.89694681 249.38432408 13.69260056 257.43071759 6.58984375 264.48046875 C-3.07942481 271.64062332 -12.44195695 273.8355855 -24.41015625 272.48046875 C-34.321245 269.27930101 -41.44299893 263.56731418 -46.28515625 254.41796875 C-49.45879787 247.93407179 -49.55888744 241.50751401 -49.55732727 234.43621826 C-49.56100396 233.5356823 -49.56468065 232.63514634 -49.56846875 231.70732141 C-49.57946605 228.69517458 -49.58334267 225.6830623 -49.5871582 222.67089844 C-49.59342573 220.50892529 -49.60007279 218.34695321 -49.60707092 216.1849823 C-49.62807553 209.09077703 -49.63846849 201.99657163 -49.6484375 194.90234375 C-49.6524861 192.45768472 -49.65660306 190.0130258 -49.66078758 187.568367 C-49.67982965 176.08447406 -49.69406396 164.60058751 -49.70239955 153.11668181 C-49.71217505 139.86872785 -49.73850704 126.62094082 -49.77890044 113.37304568 C-49.80906873 103.12656728 -49.82386903 92.88013673 -49.82718056 82.63361478 C-49.82952978 76.51656 -49.83847424 70.39968377 -49.86364174 64.2826767 C-49.88694039 58.5271989 -49.89114829 52.77201704 -49.88088036 47.01650429 C-49.88038536 44.90823952 -49.88669491 42.79996008 -49.9004364 40.69174004 C-49.99066232 26.0247933 -49.40713122 15.77181352 -38.859375 4.68359375 C-27.79049418 -5.27310287 -13.17694525 -6.31432142 0 0 Z " fill="#8A5CFF" transform="translate(583.41015625,372.51953125)"/>
<path d="M0 0 C8.27525961 5.82113534 12.83215541 12.49646623 16 22 C16.10275878 24.92754053 16.14780449 27.83154603 16.14717102 30.75941467 C16.15084771 31.66555447 16.1545244 32.57169426 16.1583125 33.50529283 C16.16936238 36.55439686 16.17319543 39.60346682 16.17700195 42.65258789 C16.18326571 44.83382272 16.18991243 47.01505648 16.19691467 49.19628906 C16.2143346 55.13254024 16.22487957 61.06878335 16.2331202 67.00505376 C16.23826921 70.71398194 16.24434505 74.42290762 16.25063133 78.13183403 C16.26968784 89.7364068 16.28391692 101.34097319 16.2922433 112.94555861 C16.29321182 114.2813327 16.29418607 115.61710678 16.29516602 116.95288086 C16.29564976 117.61546834 16.2961335 118.27805583 16.2966319 118.96072172 C16.30441009 129.01870271 16.32623696 139.07658513 16.35668945 149.13452148 C16.39194979 160.81861518 16.41328716 172.50262888 16.41702431 184.18677706 C16.41937421 190.36982743 16.4283268 196.55270121 16.45348549 202.73570442 C16.47678484 208.55598278 16.48099174 214.37596851 16.47072411 220.19628143 C16.47022906 222.32873191 16.4765401 224.46119687 16.49028015 226.59360313 C16.50803539 229.51331676 16.50087476 232.43198436 16.48774719 235.35169983 C16.49871644 236.18820653 16.50968568 237.02471322 16.52098733 237.88656861 C16.41998985 247.24207762 12.71007394 255.90954004 6.35546875 262.77734375 C-0.73041915 269.60346387 -8.3616235 272.17385272 -18.125 272.5 C-24.2586561 272.29911607 -28.79552871 271.23140287 -34 268 C-34.69738281 267.57589844 -35.39476562 267.15179687 -36.11328125 266.71484375 C-43.53709103 261.69573318 -48.19501265 254.79046364 -50 246 C-50.27331043 242.90231143 -50.27459764 239.8231411 -50.26069641 236.71487427 C-50.26452196 235.80052766 -50.26834751 234.88618105 -50.27228898 233.94412696 C-50.28257827 230.8912404 -50.27863455 227.83854334 -50.2746582 224.78564453 C-50.27900693 222.59234443 -50.28419062 220.39904584 -50.29014587 218.20574951 C-50.30352992 212.25531914 -50.30411518 206.30495232 -50.30158257 200.35450983 C-50.30051244 195.38434522 -50.30539734 190.41419345 -50.310188 185.4440316 C-50.32191524 173.04679124 -50.32105928 160.64958219 -50.31463119 148.25233994 C-50.30946326 137.49852885 -50.32071565 126.74480838 -50.33972941 115.99101521 C-50.35912545 104.93582948 -50.36706953 93.88068867 -50.36360615 82.82548606 C-50.36179403 76.62412533 -50.36442257 70.42284758 -50.37832069 64.2215004 C-50.39090344 58.3888852 -50.38895053 52.55645125 -50.37590981 46.72383881 C-50.37354545 44.58613651 -50.37627363 42.44842144 -50.38453293 40.3107338 C-50.39501388 37.38664418 -50.38688868 34.46316118 -50.3742218 31.53909302 C-50.38159609 30.69851101 -50.38897037 29.857929 -50.39656812 28.99187481 C-50.30560525 18.97127452 -46.99949841 11.17482303 -40 4 C-28.44647503 -5.40356468 -13.28994631 -7.40325838 0 0 Z " fill="#8A5CFF" transform="translate(339,373)"/>
</svg>
